<mxfile host="Electron" agent="Mozilla/5.0 (X11; Linux x86_64) AppleWebKit/537.36 (KHTML, like Gecko) draw.io/28.0.6 Chrome/138.0.7204.100 Electron/37.2.3 Safari/537.36" version="28.0.6" pages="4">
  <diagram name="Goals (MVP)" id="NpR3vYvVEz-kR5uGabG-">
    <mxGraphModel dx="1135" dy="649" grid="1" gridSize="10" guides="1" tooltips="1" connect="1" arrows="1" fold="1" page="1" pageScale="1" pageWidth="850" pageHeight="1100" math="0" shadow="0">
      <root>
        <mxCell id="0" />
        <mxCell id="1" parent="0" />
        <mxCell id="zECW4NKRsaPGCBcXiYQw-28" value="Naming" style="swimlane;whiteSpace=wrap;html=1;" vertex="1" parent="1">
          <mxGeometry x="80" y="30" width="200" height="200" as="geometry" />
        </mxCell>
        <mxCell id="zECW4NKRsaPGCBcXiYQw-27" value="Animal Atlas&lt;div&gt;TrackTails&lt;/div&gt;&lt;div&gt;Pawssport&lt;/div&gt;&lt;div&gt;&lt;br&gt;&lt;/div&gt;" style="rounded=1;whiteSpace=wrap;html=1;fillColor=#d5e8d4;strokeColor=#82b366;" vertex="1" parent="zECW4NKRsaPGCBcXiYQw-28">
          <mxGeometry x="45" y="60" width="110" height="100" as="geometry" />
        </mxCell>
        <mxCell id="zECW4NKRsaPGCBcXiYQw-30" value="Core Features" style="swimlane;whiteSpace=wrap;html=1;" vertex="1" parent="1">
          <mxGeometry x="320" y="30" width="200" height="200" as="geometry" />
        </mxCell>
        <mxCell id="zECW4NKRsaPGCBcXiYQw-31" value="&lt;div&gt;Registering&lt;/div&gt;&lt;div&gt;Identification&lt;/div&gt;&lt;div&gt;Tracking&lt;/div&gt;" style="rounded=1;whiteSpace=wrap;html=1;fillColor=#d5e8d4;strokeColor=#82b366;" vertex="1" parent="zECW4NKRsaPGCBcXiYQw-30">
          <mxGeometry x="50" y="60" width="110" height="100" as="geometry" />
        </mxCell>
        <mxCell id="zECW4NKRsaPGCBcXiYQw-32" value="Target" style="swimlane;whiteSpace=wrap;html=1;" vertex="1" parent="1">
          <mxGeometry x="560" y="30" width="200" height="200" as="geometry" />
        </mxCell>
        <mxCell id="zECW4NKRsaPGCBcXiYQw-33" value="&lt;div&gt;Pet Owners&lt;/div&gt;&lt;div&gt;Veterinarians&lt;/div&gt;&lt;div&gt;Board Control&lt;/div&gt;" style="rounded=1;whiteSpace=wrap;html=1;fillColor=#d5e8d4;strokeColor=#82b366;" vertex="1" parent="zECW4NKRsaPGCBcXiYQw-32">
          <mxGeometry x="45" y="60" width="110" height="100" as="geometry" />
        </mxCell>
      </root>
    </mxGraphModel>
  </diagram>
  <diagram id="xXH3PS5gLxYi7Sls6h_A" name="Use Cases (MVP)">
    <mxGraphModel dx="649" dy="371" grid="1" gridSize="10" guides="1" tooltips="1" connect="1" arrows="1" fold="1" page="1" pageScale="1" pageWidth="850" pageHeight="1100" math="0" shadow="0">
      <root>
        <mxCell id="0" />
        <mxCell id="1" parent="0" />
        <mxCell id="09i6xhKne_97esFLNlVK-12" style="edgeStyle=none;shape=connector;rounded=0;orthogonalLoop=1;jettySize=auto;html=1;strokeColor=#d6b656;align=center;verticalAlign=middle;fontFamily=Helvetica;fontSize=12;fontColor=default;labelBackgroundColor=default;endArrow=classic;fillColor=#fff2cc;" parent="1" source="09i6xhKne_97esFLNlVK-1" target="09i6xhKne_97esFLNlVK-6" edge="1">
          <mxGeometry relative="1" as="geometry" />
        </mxCell>
        <mxCell id="09i6xhKne_97esFLNlVK-14" style="edgeStyle=none;shape=connector;rounded=0;orthogonalLoop=1;jettySize=auto;html=1;strokeColor=#d6b656;align=center;verticalAlign=middle;fontFamily=Helvetica;fontSize=12;fontColor=default;labelBackgroundColor=default;endArrow=classic;fillColor=#fff2cc;" parent="1" source="09i6xhKne_97esFLNlVK-1" target="09i6xhKne_97esFLNlVK-13" edge="1">
          <mxGeometry relative="1" as="geometry" />
        </mxCell>
        <mxCell id="09i6xhKne_97esFLNlVK-32" style="edgeStyle=none;shape=connector;rounded=0;orthogonalLoop=1;jettySize=auto;html=1;strokeColor=#d6b656;align=center;verticalAlign=middle;fontFamily=Helvetica;fontSize=12;fontColor=default;labelBackgroundColor=default;endArrow=classic;fillColor=#fff2cc;" parent="1" source="09i6xhKne_97esFLNlVK-1" target="09i6xhKne_97esFLNlVK-29" edge="1">
          <mxGeometry relative="1" as="geometry" />
        </mxCell>
        <mxCell id="-gHc1_zjceXFyJQzNNJs-2" style="edgeStyle=none;shape=connector;rounded=0;orthogonalLoop=1;jettySize=auto;html=1;strokeColor=#d6b656;align=center;verticalAlign=middle;fontFamily=Helvetica;fontSize=12;fontColor=default;labelBackgroundColor=default;endArrow=classic;fillColor=#fff2cc;" parent="1" source="09i6xhKne_97esFLNlVK-1" target="-gHc1_zjceXFyJQzNNJs-1" edge="1">
          <mxGeometry relative="1" as="geometry" />
        </mxCell>
        <mxCell id="09i6xhKne_97esFLNlVK-1" value="Pet Owners" style="shape=umlActor;verticalLabelPosition=bottom;verticalAlign=top;html=1;shadow=0;dashed=0;sketch=0;pointerEvents=1;align=center;fontFamily=Helvetica;fontSize=12;fontColor=default;fillColor=#000000;" parent="1" vertex="1">
          <mxGeometry x="70" y="40" width="30" height="60" as="geometry" />
        </mxCell>
        <mxCell id="09i6xhKne_97esFLNlVK-11" style="edgeStyle=none;shape=connector;rounded=0;orthogonalLoop=1;jettySize=auto;html=1;strokeColor=#6c8ebf;align=center;verticalAlign=middle;fontFamily=Helvetica;fontSize=12;fontColor=default;labelBackgroundColor=default;endArrow=classic;fillColor=#dae8fc;" parent="1" source="09i6xhKne_97esFLNlVK-2" target="09i6xhKne_97esFLNlVK-6" edge="1">
          <mxGeometry relative="1" as="geometry" />
        </mxCell>
        <mxCell id="09i6xhKne_97esFLNlVK-15" style="edgeStyle=none;shape=connector;rounded=0;orthogonalLoop=1;jettySize=auto;html=1;strokeColor=#6c8ebf;align=center;verticalAlign=middle;fontFamily=Helvetica;fontSize=12;fontColor=default;labelBackgroundColor=default;endArrow=classic;fillColor=#dae8fc;" parent="1" source="09i6xhKne_97esFLNlVK-2" target="09i6xhKne_97esFLNlVK-13" edge="1">
          <mxGeometry relative="1" as="geometry" />
        </mxCell>
        <mxCell id="09i6xhKne_97esFLNlVK-31" style="edgeStyle=none;shape=connector;rounded=0;orthogonalLoop=1;jettySize=auto;html=1;strokeColor=#6c8ebf;align=center;verticalAlign=middle;fontFamily=Helvetica;fontSize=12;fontColor=default;labelBackgroundColor=default;endArrow=classic;fillColor=#dae8fc;" parent="1" source="09i6xhKne_97esFLNlVK-2" target="09i6xhKne_97esFLNlVK-29" edge="1">
          <mxGeometry relative="1" as="geometry" />
        </mxCell>
        <mxCell id="aOERrwnabRQT_Zv-u1xx-1" style="rounded=0;orthogonalLoop=1;jettySize=auto;html=1;fillColor=#dae8fc;strokeColor=#6c8ebf;" edge="1" parent="1" source="09i6xhKne_97esFLNlVK-2" target="-gHc1_zjceXFyJQzNNJs-3">
          <mxGeometry relative="1" as="geometry" />
        </mxCell>
        <mxCell id="09i6xhKne_97esFLNlVK-2" value="Veterinarians" style="shape=umlActor;verticalLabelPosition=bottom;verticalAlign=top;html=1;shadow=0;dashed=0;sketch=0;pointerEvents=1;align=center;fontFamily=Helvetica;fontSize=12;fontColor=default;fillColor=#000000;" parent="1" vertex="1">
          <mxGeometry x="70" y="140" width="30" height="60" as="geometry" />
        </mxCell>
        <mxCell id="09i6xhKne_97esFLNlVK-10" style="edgeStyle=none;shape=connector;rounded=0;orthogonalLoop=1;jettySize=auto;html=1;strokeColor=#b85450;align=center;verticalAlign=middle;fontFamily=Helvetica;fontSize=12;fontColor=default;labelBackgroundColor=default;endArrow=classic;fillColor=#f8cecc;" parent="1" source="09i6xhKne_97esFLNlVK-3" target="09i6xhKne_97esFLNlVK-6" edge="1">
          <mxGeometry relative="1" as="geometry" />
        </mxCell>
        <mxCell id="09i6xhKne_97esFLNlVK-30" style="edgeStyle=none;shape=connector;rounded=0;orthogonalLoop=1;jettySize=auto;html=1;strokeColor=#b85450;align=center;verticalAlign=middle;fontFamily=Helvetica;fontSize=12;fontColor=default;labelBackgroundColor=default;endArrow=classic;fillColor=#f8cecc;" parent="1" source="09i6xhKne_97esFLNlVK-3" target="09i6xhKne_97esFLNlVK-29" edge="1">
          <mxGeometry relative="1" as="geometry" />
        </mxCell>
        <mxCell id="09i6xhKne_97esFLNlVK-3" value="Third Party" style="shape=umlActor;verticalLabelPosition=bottom;verticalAlign=top;html=1;shadow=0;dashed=0;sketch=0;pointerEvents=1;align=center;fontFamily=Helvetica;fontSize=12;fontColor=default;fillColor=#000000;" parent="1" vertex="1">
          <mxGeometry x="70" y="240" width="30" height="60" as="geometry" />
        </mxCell>
        <mxCell id="09i6xhKne_97esFLNlVK-6" value="View Pet Information" style="ellipse;html=1;whiteSpace=wrap;shadow=0;dashed=0;sketch=0;pointerEvents=1;align=center;verticalAlign=top;fontFamily=Helvetica;fontSize=12;fontColor=default;fillColor=#FFFFFF;fillStyle=solid;" parent="1" vertex="1">
          <mxGeometry x="200" y="310" width="80" height="40" as="geometry" />
        </mxCell>
        <mxCell id="09i6xhKne_97esFLNlVK-7" value="User Interaction" style="shape=umlFrame;whiteSpace=wrap;html=1;pointerEvents=0;shadow=0;dashed=0;sketch=0;fillStyle=solid;strokeColor=default;align=center;verticalAlign=top;fontFamily=Helvetica;fontSize=12;fontColor=default;fillColor=#FFFFFF;width=75;height=50;" parent="1" vertex="1">
          <mxGeometry x="175" y="40" width="250" height="370" as="geometry" />
        </mxCell>
        <mxCell id="09i6xhKne_97esFLNlVK-37" style="edgeStyle=none;shape=connector;rounded=0;orthogonalLoop=1;jettySize=auto;html=1;strokeColor=default;align=center;verticalAlign=middle;fontFamily=Helvetica;fontSize=12;fontColor=default;labelBackgroundColor=default;endArrow=classic;dashed=1;" parent="1" source="09i6xhKne_97esFLNlVK-13" target="09i6xhKne_97esFLNlVK-35" edge="1">
          <mxGeometry relative="1" as="geometry" />
        </mxCell>
        <mxCell id="09i6xhKne_97esFLNlVK-13" value="Update Pet Information" style="ellipse;html=1;whiteSpace=wrap;shadow=0;dashed=0;sketch=0;pointerEvents=1;align=center;verticalAlign=top;fontFamily=Helvetica;fontSize=12;fontColor=default;fillColor=#FFFFFF;fillStyle=solid;" parent="1" vertex="1">
          <mxGeometry x="200" y="150" width="80" height="40" as="geometry" />
        </mxCell>
        <mxCell id="09i6xhKne_97esFLNlVK-29" value="Check Pet History" style="ellipse;html=1;whiteSpace=wrap;shadow=0;dashed=0;sketch=0;pointerEvents=1;align=center;verticalAlign=top;fontFamily=Helvetica;fontSize=12;fontColor=default;fillColor=#FFFFFF;fillStyle=solid;" parent="1" vertex="1">
          <mxGeometry x="200" y="250" width="80" height="40" as="geometry" />
        </mxCell>
        <mxCell id="09i6xhKne_97esFLNlVK-35" value="Notify&amp;nbsp;&lt;div&gt;Owner&lt;/div&gt;" style="ellipse;html=1;whiteSpace=wrap;shadow=0;dashed=0;sketch=0;pointerEvents=1;align=center;verticalAlign=top;fontFamily=Helvetica;fontSize=12;fontColor=default;fillColor=#FFFFFF;fillStyle=solid;" parent="1" vertex="1">
          <mxGeometry x="330" y="150" width="80" height="40" as="geometry" />
        </mxCell>
        <mxCell id="-gHc1_zjceXFyJQzNNJs-1" value="Register&lt;br&gt;Pet" style="ellipse;html=1;whiteSpace=wrap;shadow=0;dashed=0;sketch=0;pointerEvents=1;align=center;verticalAlign=top;fontFamily=Helvetica;fontSize=12;fontColor=default;fillColor=#FFFFFF;fillStyle=solid;" parent="1" vertex="1">
          <mxGeometry x="200" y="100" width="80" height="40" as="geometry" />
        </mxCell>
        <mxCell id="-gHc1_zjceXFyJQzNNJs-4" style="edgeStyle=none;shape=connector;rounded=0;orthogonalLoop=1;jettySize=auto;html=1;strokeColor=default;align=center;verticalAlign=middle;fontFamily=Helvetica;fontSize=12;fontColor=default;labelBackgroundColor=default;endArrow=classic;dashed=1;" parent="1" source="-gHc1_zjceXFyJQzNNJs-3" target="09i6xhKne_97esFLNlVK-35" edge="1">
          <mxGeometry relative="1" as="geometry" />
        </mxCell>
        <mxCell id="-gHc1_zjceXFyJQzNNJs-3" value="Schedule Vaccines" style="ellipse;html=1;whiteSpace=wrap;shadow=0;dashed=0;sketch=0;pointerEvents=1;align=center;verticalAlign=top;fontFamily=Helvetica;fontSize=12;fontColor=default;fillColor=#FFFFFF;fillStyle=solid;" parent="1" vertex="1">
          <mxGeometry x="330" y="220" width="80" height="40" as="geometry" />
        </mxCell>
      </root>
    </mxGraphModel>
  </diagram>
  <diagram id="mWC38UyvBUCqBPzP3vcf" name="Structure">
    <mxGraphModel dx="742" dy="649" grid="1" gridSize="10" guides="1" tooltips="1" connect="1" arrows="1" fold="1" page="1" pageScale="1" pageWidth="850" pageHeight="1100" math="0" shadow="0">
      <root>
        <mxCell id="0" />
        <mxCell id="1" parent="0" />
        <mxCell id="TpMCUubXVacqvQI8SASR-14" value="" style="rounded=1;whiteSpace=wrap;html=1;fillColor=none;strokeColor=#6C8EBF;" vertex="1" parent="1">
          <mxGeometry x="440" y="210" width="220" height="130" as="geometry" />
        </mxCell>
        <mxCell id="TpMCUubXVacqvQI8SASR-13" style="edgeStyle=orthogonalEdgeStyle;rounded=0;orthogonalLoop=1;jettySize=auto;html=1;" edge="1" parent="1" source="TpMCUubXVacqvQI8SASR-11" target="TpMCUubXVacqvQI8SASR-6">
          <mxGeometry relative="1" as="geometry">
            <Array as="points">
              <mxPoint x="320" y="280" />
              <mxPoint x="320" y="280" />
            </Array>
          </mxGeometry>
        </mxCell>
        <mxCell id="TpMCUubXVacqvQI8SASR-11" value="" style="rounded=1;whiteSpace=wrap;html=1;fillColor=none;strokeColor=#6C8EBF;" vertex="1" parent="1">
          <mxGeometry x="175" y="110" width="125" height="320" as="geometry" />
        </mxCell>
        <mxCell id="TpMCUubXVacqvQI8SASR-12" style="edgeStyle=orthogonalEdgeStyle;rounded=0;orthogonalLoop=1;jettySize=auto;html=1;entryX=0;entryY=0.5;entryDx=0;entryDy=0;" edge="1" parent="1" source="TpMCUubXVacqvQI8SASR-1" target="TpMCUubXVacqvQI8SASR-11">
          <mxGeometry relative="1" as="geometry" />
        </mxCell>
        <mxCell id="TpMCUubXVacqvQI8SASR-1" value="" style="sketch=0;aspect=fixed;pointerEvents=1;shadow=0;dashed=0;html=1;strokeColor=none;labelPosition=center;verticalLabelPosition=bottom;verticalAlign=top;align=center;fillColor=#00188D;shape=mxgraph.azure.user" vertex="1" parent="1">
          <mxGeometry x="40" y="245" width="47" height="50" as="geometry" />
        </mxCell>
        <mxCell id="TpMCUubXVacqvQI8SASR-2" value="Android" style="sketch=0;aspect=fixed;pointerEvents=1;shadow=0;dashed=0;html=1;strokeColor=none;labelPosition=center;verticalLabelPosition=bottom;verticalAlign=top;align=center;fillColor=#00188D;shape=mxgraph.mscae.enterprise.android_phone" vertex="1" parent="1">
          <mxGeometry x="220" y="170" width="30" height="50" as="geometry" />
        </mxCell>
        <mxCell id="TpMCUubXVacqvQI8SASR-5" value="DB" style="sketch=0;aspect=fixed;pointerEvents=1;shadow=0;dashed=0;html=1;strokeColor=none;labelPosition=center;verticalLabelPosition=bottom;verticalAlign=top;align=center;fillColor=#00188D;shape=mxgraph.mscae.enterprise.database_generic" vertex="1" parent="1">
          <mxGeometry x="570" y="250" width="37" height="50" as="geometry" />
        </mxCell>
        <mxCell id="TpMCUubXVacqvQI8SASR-16" style="edgeStyle=orthogonalEdgeStyle;rounded=0;orthogonalLoop=1;jettySize=auto;html=1;" edge="1" parent="1" source="TpMCUubXVacqvQI8SASR-6" target="TpMCUubXVacqvQI8SASR-14">
          <mxGeometry relative="1" as="geometry">
            <Array as="points">
              <mxPoint x="420" y="280" />
              <mxPoint x="420" y="280" />
            </Array>
          </mxGeometry>
        </mxCell>
        <mxCell id="TpMCUubXVacqvQI8SASR-6" value="Internet" style="sketch=0;aspect=fixed;pointerEvents=1;shadow=0;dashed=0;html=1;strokeColor=none;labelPosition=center;verticalLabelPosition=bottom;verticalAlign=top;align=center;fillColor=#00188D;shape=mxgraph.mscae.enterprise.internet_hollow" vertex="1" parent="1">
          <mxGeometry x="350" y="254.5" width="50" height="31" as="geometry" />
        </mxCell>
        <mxCell id="TpMCUubXVacqvQI8SASR-7" value="WEB" style="sketch=0;aspect=fixed;pointerEvents=1;shadow=0;dashed=0;html=1;strokeColor=none;labelPosition=center;verticalLabelPosition=bottom;verticalAlign=top;align=center;fillColor=#00188D;shape=mxgraph.azure.laptop" vertex="1" parent="1">
          <mxGeometry x="210" y="350" width="50" height="30" as="geometry" />
        </mxCell>
        <mxCell id="TpMCUubXVacqvQI8SASR-8" value="IOS" style="sketch=0;aspect=fixed;pointerEvents=1;shadow=0;dashed=0;html=1;strokeColor=none;labelPosition=center;verticalLabelPosition=bottom;verticalAlign=top;align=center;fillColor=#00188D;shape=mxgraph.azure.mobile" vertex="1" parent="1">
          <mxGeometry x="217.5" y="260" width="35" height="50" as="geometry" />
        </mxCell>
        <mxCell id="TpMCUubXVacqvQI8SASR-18" style="edgeStyle=orthogonalEdgeStyle;rounded=0;orthogonalLoop=1;jettySize=auto;html=1;" edge="1" parent="1" source="TpMCUubXVacqvQI8SASR-9" target="TpMCUubXVacqvQI8SASR-5">
          <mxGeometry relative="1" as="geometry" />
        </mxCell>
        <mxCell id="TpMCUubXVacqvQI8SASR-9" value="VM" style="sketch=0;aspect=fixed;pointerEvents=1;shadow=0;dashed=0;html=1;strokeColor=none;labelPosition=center;verticalLabelPosition=bottom;verticalAlign=top;align=center;fillColor=#00188D;shape=mxgraph.azure.virtual_machine_feature" vertex="1" parent="1">
          <mxGeometry x="475" y="252.5" width="50" height="45" as="geometry" />
        </mxCell>
        <mxCell id="TpMCUubXVacqvQI8SASR-3" value="Cloud" style="sketch=0;aspect=fixed;pointerEvents=1;shadow=0;dashed=0;html=1;strokeColor=none;labelPosition=center;verticalLabelPosition=top;verticalAlign=bottom;align=center;fillColor=#00188D;shape=mxgraph.azure.cloud" vertex="1" parent="1">
          <mxGeometry x="425" y="198" width="50" height="32" as="geometry" />
        </mxCell>
      </root>
    </mxGraphModel>
  </diagram>
  <diagram id="GfCcwnNHvLWe_1ugh4ve" name="ERM">
    <mxGraphModel dx="576" dy="843" grid="1" gridSize="10" guides="1" tooltips="1" connect="1" arrows="1" fold="1" page="1" pageScale="1" pageWidth="850" pageHeight="1100" math="0" shadow="0">
      <root>
        <mxCell id="0" />
        <mxCell id="1" parent="0" />
        <mxCell id="qgDj-NQgLyy0txTHvN6Q-70" value="MVP" style="dashed=1;verticalAlign=top;fontStyle=0;whiteSpace=wrap;html=1;shadow=0;sketch=0;fillStyle=solid;pointerEvents=1;align=center;fontFamily=Helvetica;fontSize=12;labelBackgroundColor=default;movable=1;resizable=1;rotatable=1;deletable=1;editable=1;locked=0;connectable=1;" parent="1" vertex="1">
          <mxGeometry x="1690" y="50" width="750" height="320" as="geometry" />
        </mxCell>
        <mxCell id="qgDj-NQgLyy0txTHvN6Q-2" value="MVP" style="fillColor=none;strokeColor=#5A6C86;dashed=1;verticalAlign=top;fontStyle=0;fontColor=#5A6C86;whiteSpace=wrap;html=1;shadow=0;sketch=0;fillStyle=solid;pointerEvents=1;align=center;fontFamily=Helvetica;fontSize=12;labelBackgroundColor=default;movable=0;resizable=0;rotatable=0;deletable=0;editable=0;locked=1;connectable=0;" parent="1" vertex="1">
          <mxGeometry x="880" y="50" width="750" height="630" as="geometry" />
        </mxCell>
        <mxCell id="cU1rNZnWF7x6a8gP6g8F-7" value="" style="edgeStyle=none;shape=connector;rounded=0;orthogonalLoop=1;jettySize=auto;html=1;align=center;verticalAlign=middle;fontFamily=Helvetica;fontSize=12;fontColor=default;labelBackgroundColor=default;endArrow=classic;" parent="1" source="5d4vTmVArn_NRqN0kQWM-3" target="cU1rNZnWF7x6a8gP6g8F-6" edge="1">
          <mxGeometry relative="1" as="geometry" />
        </mxCell>
        <mxCell id="cU1rNZnWF7x6a8gP6g8F-47" value="" style="edgeStyle=none;shape=connector;rounded=0;orthogonalLoop=1;jettySize=auto;html=1;align=center;verticalAlign=middle;fontFamily=Helvetica;fontSize=12;fontColor=default;labelBackgroundColor=default;endArrow=classic;" parent="1" source="5d4vTmVArn_NRqN0kQWM-3" target="cU1rNZnWF7x6a8gP6g8F-6" edge="1">
          <mxGeometry relative="1" as="geometry" />
        </mxCell>
        <mxCell id="cU1rNZnWF7x6a8gP6g8F-49" value="" style="edgeStyle=none;shape=connector;rounded=0;orthogonalLoop=1;jettySize=auto;html=1;align=center;verticalAlign=middle;fontFamily=Helvetica;fontSize=12;fontColor=default;labelBackgroundColor=default;endArrow=classic;" parent="1" source="5d4vTmVArn_NRqN0kQWM-3" target="cU1rNZnWF7x6a8gP6g8F-48" edge="1">
          <mxGeometry relative="1" as="geometry" />
        </mxCell>
        <mxCell id="cU1rNZnWF7x6a8gP6g8F-51" value="" style="edgeStyle=none;shape=connector;rounded=0;orthogonalLoop=1;jettySize=auto;html=1;align=center;verticalAlign=middle;fontFamily=Helvetica;fontSize=12;fontColor=default;labelBackgroundColor=default;endArrow=classic;" parent="1" source="5d4vTmVArn_NRqN0kQWM-3" target="cU1rNZnWF7x6a8gP6g8F-50" edge="1">
          <mxGeometry relative="1" as="geometry" />
        </mxCell>
        <mxCell id="cU1rNZnWF7x6a8gP6g8F-52" value="" style="edgeStyle=none;shape=connector;rounded=0;orthogonalLoop=1;jettySize=auto;html=1;align=center;verticalAlign=middle;fontFamily=Helvetica;fontSize=12;fontColor=default;labelBackgroundColor=default;endArrow=classic;" parent="1" source="5d4vTmVArn_NRqN0kQWM-3" target="cU1rNZnWF7x6a8gP6g8F-50" edge="1">
          <mxGeometry relative="1" as="geometry" />
        </mxCell>
        <mxCell id="cU1rNZnWF7x6a8gP6g8F-54" value="" style="edgeStyle=none;shape=connector;rounded=0;orthogonalLoop=1;jettySize=auto;html=1;align=center;verticalAlign=middle;fontFamily=Helvetica;fontSize=12;fontColor=default;labelBackgroundColor=default;endArrow=classic;" parent="1" source="5d4vTmVArn_NRqN0kQWM-3" target="cU1rNZnWF7x6a8gP6g8F-53" edge="1">
          <mxGeometry relative="1" as="geometry" />
        </mxCell>
        <mxCell id="5d4vTmVArn_NRqN0kQWM-3" value="Third Party" style="html=1;dashed=0;whiteSpace=wrap;shadow=0;sketch=0;fillStyle=solid;pointerEvents=1;align=center;verticalAlign=middle;fontFamily=Helvetica;fontSize=12;labelBackgroundColor=default;" parent="1" vertex="1">
          <mxGeometry x="1435" y="860" width="100" height="50" as="geometry" />
        </mxCell>
        <mxCell id="cU1rNZnWF7x6a8gP6g8F-6" value="id" style="ellipse;whiteSpace=wrap;html=1;dashed=0;shadow=0;sketch=0;fillStyle=solid;pointerEvents=1;labelBackgroundColor=default;" parent="1" vertex="1">
          <mxGeometry x="1275" y="795" width="80" height="80" as="geometry" />
        </mxCell>
        <mxCell id="cU1rNZnWF7x6a8gP6g8F-11" value="" style="edgeStyle=none;shape=connector;rounded=0;orthogonalLoop=1;jettySize=auto;html=1;align=center;verticalAlign=middle;fontFamily=Helvetica;fontSize=12;fontColor=default;labelBackgroundColor=default;endArrow=classic;" parent="1" source="cU1rNZnWF7x6a8gP6g8F-8" target="cU1rNZnWF7x6a8gP6g8F-10" edge="1">
          <mxGeometry relative="1" as="geometry" />
        </mxCell>
        <mxCell id="cU1rNZnWF7x6a8gP6g8F-12" value="" style="edgeStyle=none;shape=connector;rounded=0;orthogonalLoop=1;jettySize=auto;html=1;align=center;verticalAlign=middle;fontFamily=Helvetica;fontSize=12;fontColor=default;labelBackgroundColor=default;endArrow=classic;" parent="1" source="cU1rNZnWF7x6a8gP6g8F-8" target="cU1rNZnWF7x6a8gP6g8F-10" edge="1">
          <mxGeometry relative="1" as="geometry" />
        </mxCell>
        <mxCell id="cU1rNZnWF7x6a8gP6g8F-14" value="" style="edgeStyle=none;shape=connector;rounded=0;orthogonalLoop=1;jettySize=auto;html=1;align=center;verticalAlign=middle;fontFamily=Helvetica;fontSize=12;fontColor=default;labelBackgroundColor=default;endArrow=classic;" parent="1" source="cU1rNZnWF7x6a8gP6g8F-8" target="cU1rNZnWF7x6a8gP6g8F-13" edge="1">
          <mxGeometry relative="1" as="geometry" />
        </mxCell>
        <mxCell id="cU1rNZnWF7x6a8gP6g8F-16" style="edgeStyle=none;shape=connector;rounded=0;orthogonalLoop=1;jettySize=auto;html=1;align=center;verticalAlign=middle;fontFamily=Helvetica;fontSize=12;fontColor=default;labelBackgroundColor=default;endArrow=classic;" parent="1" source="cU1rNZnWF7x6a8gP6g8F-8" target="cU1rNZnWF7x6a8gP6g8F-15" edge="1">
          <mxGeometry relative="1" as="geometry" />
        </mxCell>
        <mxCell id="cU1rNZnWF7x6a8gP6g8F-18" value="" style="edgeStyle=none;shape=connector;rounded=0;orthogonalLoop=1;jettySize=auto;html=1;align=center;verticalAlign=middle;fontFamily=Helvetica;fontSize=12;fontColor=default;labelBackgroundColor=default;endArrow=classic;" parent="1" source="cU1rNZnWF7x6a8gP6g8F-8" target="cU1rNZnWF7x6a8gP6g8F-17" edge="1">
          <mxGeometry relative="1" as="geometry">
            <mxPoint x="1189.9965217391305" y="210" as="sourcePoint" />
          </mxGeometry>
        </mxCell>
        <mxCell id="cU1rNZnWF7x6a8gP6g8F-31" style="edgeStyle=none;shape=connector;rounded=0;orthogonalLoop=1;jettySize=auto;html=1;align=center;verticalAlign=middle;fontFamily=Helvetica;fontSize=12;fontColor=default;labelBackgroundColor=default;endArrow=classic;" parent="1" source="cU1rNZnWF7x6a8gP6g8F-8" target="cU1rNZnWF7x6a8gP6g8F-30" edge="1">
          <mxGeometry relative="1" as="geometry" />
        </mxCell>
        <mxCell id="qgDj-NQgLyy0txTHvN6Q-9" style="edgeStyle=none;shape=connector;rounded=0;orthogonalLoop=1;jettySize=auto;html=1;align=center;verticalAlign=middle;fontFamily=Helvetica;fontSize=12;fontColor=default;labelBackgroundColor=default;endArrow=classic;" parent="1" source="cU1rNZnWF7x6a8gP6g8F-8" target="cU1rNZnWF7x6a8gP6g8F-59" edge="1">
          <mxGeometry relative="1" as="geometry" />
        </mxCell>
        <mxCell id="cU1rNZnWF7x6a8gP6g8F-8" value="PetOwner" style="html=1;dashed=0;whiteSpace=wrap;shadow=0;sketch=0;fillStyle=solid;pointerEvents=1;align=center;verticalAlign=middle;fontFamily=Helvetica;fontSize=12;labelBackgroundColor=default;" parent="1" vertex="1">
          <mxGeometry x="1490" y="165" width="100" height="50" as="geometry" />
        </mxCell>
        <mxCell id="cU1rNZnWF7x6a8gP6g8F-24" value="" style="edgeStyle=none;shape=connector;rounded=0;orthogonalLoop=1;jettySize=auto;html=1;align=center;verticalAlign=middle;fontFamily=Helvetica;fontSize=12;fontColor=default;labelBackgroundColor=default;endArrow=classic;" parent="1" source="cU1rNZnWF7x6a8gP6g8F-9" target="cU1rNZnWF7x6a8gP6g8F-23" edge="1">
          <mxGeometry relative="1" as="geometry" />
        </mxCell>
        <mxCell id="cU1rNZnWF7x6a8gP6g8F-26" value="" style="edgeStyle=none;shape=connector;rounded=0;orthogonalLoop=1;jettySize=auto;html=1;align=center;verticalAlign=middle;fontFamily=Helvetica;fontSize=12;fontColor=default;labelBackgroundColor=default;endArrow=classic;" parent="1" source="cU1rNZnWF7x6a8gP6g8F-9" target="cU1rNZnWF7x6a8gP6g8F-25" edge="1">
          <mxGeometry relative="1" as="geometry" />
        </mxCell>
        <mxCell id="cU1rNZnWF7x6a8gP6g8F-28" style="edgeStyle=none;shape=connector;rounded=0;orthogonalLoop=1;jettySize=auto;html=1;align=center;verticalAlign=middle;fontFamily=Helvetica;fontSize=12;fontColor=default;labelBackgroundColor=default;endArrow=classic;" parent="1" source="cU1rNZnWF7x6a8gP6g8F-9" target="cU1rNZnWF7x6a8gP6g8F-27" edge="1">
          <mxGeometry relative="1" as="geometry" />
        </mxCell>
        <mxCell id="cU1rNZnWF7x6a8gP6g8F-32" style="edgeStyle=none;shape=connector;rounded=0;orthogonalLoop=1;jettySize=auto;html=1;align=center;verticalAlign=middle;fontFamily=Helvetica;fontSize=12;fontColor=default;labelBackgroundColor=default;endArrow=classic;" parent="1" source="cU1rNZnWF7x6a8gP6g8F-9" target="cU1rNZnWF7x6a8gP6g8F-29" edge="1">
          <mxGeometry relative="1" as="geometry" />
        </mxCell>
        <mxCell id="cU1rNZnWF7x6a8gP6g8F-34" value="" style="edgeStyle=none;shape=connector;rounded=0;orthogonalLoop=1;jettySize=auto;html=1;align=center;verticalAlign=middle;fontFamily=Helvetica;fontSize=12;fontColor=default;labelBackgroundColor=default;endArrow=classic;" parent="1" source="cU1rNZnWF7x6a8gP6g8F-9" target="cU1rNZnWF7x6a8gP6g8F-33" edge="1">
          <mxGeometry relative="1" as="geometry" />
        </mxCell>
        <mxCell id="qgDj-NQgLyy0txTHvN6Q-8" value="" style="edgeStyle=none;shape=connector;rounded=0;orthogonalLoop=1;jettySize=auto;html=1;align=center;verticalAlign=middle;fontFamily=Helvetica;fontSize=12;fontColor=default;labelBackgroundColor=default;endArrow=classic;" parent="1" source="cU1rNZnWF7x6a8gP6g8F-9" target="qgDj-NQgLyy0txTHvN6Q-7" edge="1">
          <mxGeometry relative="1" as="geometry" />
        </mxCell>
        <mxCell id="qgDj-NQgLyy0txTHvN6Q-12" value="" style="edgeStyle=none;shape=connector;rounded=0;orthogonalLoop=1;jettySize=auto;html=1;align=center;verticalAlign=middle;fontFamily=Helvetica;fontSize=12;fontColor=default;labelBackgroundColor=default;endArrow=classic;" parent="1" target="qgDj-NQgLyy0txTHvN6Q-11" edge="1">
          <mxGeometry relative="1" as="geometry">
            <mxPoint x="1542.5" y="525" as="sourcePoint" />
          </mxGeometry>
        </mxCell>
        <mxCell id="qgDj-NQgLyy0txTHvN6Q-31" value="" style="edgeStyle=none;shape=connector;rounded=0;orthogonalLoop=1;jettySize=auto;html=1;align=center;verticalAlign=middle;fontFamily=Helvetica;fontSize=12;fontColor=default;labelBackgroundColor=default;endArrow=classic;" parent="1" source="cU1rNZnWF7x6a8gP6g8F-9" target="qgDj-NQgLyy0txTHvN6Q-30" edge="1">
          <mxGeometry relative="1" as="geometry" />
        </mxCell>
        <mxCell id="cU1rNZnWF7x6a8gP6g8F-9" value="Pet" style="html=1;dashed=0;whiteSpace=wrap;shadow=0;sketch=0;fillStyle=solid;pointerEvents=1;align=center;verticalAlign=middle;fontFamily=Helvetica;fontSize=12;labelBackgroundColor=default;" parent="1" vertex="1">
          <mxGeometry x="1490" y="475" width="100" height="50" as="geometry" />
        </mxCell>
        <mxCell id="cU1rNZnWF7x6a8gP6g8F-10" value="id" style="ellipse;whiteSpace=wrap;html=1;dashed=0;shadow=0;sketch=0;fillStyle=solid;pointerEvents=1;labelBackgroundColor=default;" parent="1" vertex="1">
          <mxGeometry x="1390" y="200" width="80" height="80" as="geometry" />
        </mxCell>
        <mxCell id="cU1rNZnWF7x6a8gP6g8F-13" value="name" style="ellipse;whiteSpace=wrap;html=1;dashed=0;shadow=0;sketch=0;fillStyle=solid;pointerEvents=1;labelBackgroundColor=default;align=center;verticalAlign=middle;fontFamily=Helvetica;fontSize=12;" parent="1" vertex="1">
          <mxGeometry x="1450" y="250" width="80" height="80" as="geometry" />
        </mxCell>
        <mxCell id="cU1rNZnWF7x6a8gP6g8F-15" value="address" style="ellipse;whiteSpace=wrap;html=1;dashed=0;shadow=0;sketch=0;fillStyle=solid;pointerEvents=1;labelBackgroundColor=default;align=center;verticalAlign=middle;fontFamily=Helvetica;fontSize=12;" parent="1" vertex="1">
          <mxGeometry x="1390" y="110" width="80" height="80" as="geometry" />
        </mxCell>
        <mxCell id="cU1rNZnWF7x6a8gP6g8F-17" value="fiscal number" style="ellipse;whiteSpace=wrap;html=1;dashed=0;shadow=0;sketch=0;fillStyle=solid;pointerEvents=1;labelBackgroundColor=default;align=center;verticalAlign=middle;fontFamily=Helvetica;fontSize=12;" parent="1" vertex="1">
          <mxGeometry x="1460" y="60" width="80" height="80" as="geometry" />
        </mxCell>
        <mxCell id="cU1rNZnWF7x6a8gP6g8F-23" value="id" style="ellipse;whiteSpace=wrap;html=1;dashed=0;shadow=0;sketch=0;fillStyle=solid;pointerEvents=1;labelBackgroundColor=default;" parent="1" vertex="1">
          <mxGeometry x="1390" y="350" width="80" height="80" as="geometry" />
        </mxCell>
        <mxCell id="cU1rNZnWF7x6a8gP6g8F-25" value="Name" style="ellipse;whiteSpace=wrap;html=1;dashed=0;shadow=0;sketch=0;fillStyle=solid;pointerEvents=1;labelBackgroundColor=default;align=center;verticalAlign=middle;fontFamily=Helvetica;fontSize=12;" parent="1" vertex="1">
          <mxGeometry x="1470" y="350" width="80" height="80" as="geometry" />
        </mxCell>
        <mxCell id="cU1rNZnWF7x6a8gP6g8F-27" value="species" style="ellipse;whiteSpace=wrap;html=1;dashed=0;shadow=0;sketch=0;fillStyle=solid;pointerEvents=1;labelBackgroundColor=default;align=center;verticalAlign=middle;fontFamily=Helvetica;fontSize=12;" parent="1" vertex="1">
          <mxGeometry x="1550" y="350" width="80" height="80" as="geometry" />
        </mxCell>
        <mxCell id="cU1rNZnWF7x6a8gP6g8F-29" value="birthdate" style="ellipse;whiteSpace=wrap;html=1;dashed=0;shadow=0;sketch=0;fillStyle=solid;pointerEvents=1;labelBackgroundColor=default;align=center;verticalAlign=middle;fontFamily=Helvetica;fontSize=12;" parent="1" vertex="1">
          <mxGeometry x="1330" y="410" width="80" height="80" as="geometry" />
        </mxCell>
        <mxCell id="cU1rNZnWF7x6a8gP6g8F-30" value="birthdate" style="ellipse;whiteSpace=wrap;html=1;dashed=0;shadow=0;sketch=0;fillStyle=solid;pointerEvents=1;labelBackgroundColor=default;align=center;verticalAlign=middle;fontFamily=Helvetica;fontSize=12;" parent="1" vertex="1">
          <mxGeometry x="1540" y="60" width="80" height="80" as="geometry" />
        </mxCell>
        <mxCell id="cU1rNZnWF7x6a8gP6g8F-33" value="weight" style="ellipse;whiteSpace=wrap;html=1;dashed=0;shadow=0;sketch=0;fillStyle=solid;pointerEvents=1;labelBackgroundColor=default;" parent="1" vertex="1">
          <mxGeometry x="1460" y="590" width="80" height="80" as="geometry" />
        </mxCell>
        <mxCell id="cU1rNZnWF7x6a8gP6g8F-35" value="" style="edgeStyle=none;shape=connector;rounded=0;orthogonalLoop=1;jettySize=auto;html=1;align=center;verticalAlign=middle;fontFamily=Helvetica;fontSize=12;fontColor=default;labelBackgroundColor=default;endArrow=classic;" parent="1" source="cU1rNZnWF7x6a8gP6g8F-41" target="cU1rNZnWF7x6a8gP6g8F-42" edge="1">
          <mxGeometry relative="1" as="geometry" />
        </mxCell>
        <mxCell id="cU1rNZnWF7x6a8gP6g8F-36" value="" style="edgeStyle=none;shape=connector;rounded=0;orthogonalLoop=1;jettySize=auto;html=1;align=center;verticalAlign=middle;fontFamily=Helvetica;fontSize=12;fontColor=default;labelBackgroundColor=default;endArrow=classic;" parent="1" source="cU1rNZnWF7x6a8gP6g8F-41" target="cU1rNZnWF7x6a8gP6g8F-42" edge="1">
          <mxGeometry relative="1" as="geometry" />
        </mxCell>
        <mxCell id="cU1rNZnWF7x6a8gP6g8F-37" value="" style="edgeStyle=none;shape=connector;rounded=0;orthogonalLoop=1;jettySize=auto;html=1;align=center;verticalAlign=middle;fontFamily=Helvetica;fontSize=12;fontColor=default;labelBackgroundColor=default;endArrow=classic;" parent="1" source="cU1rNZnWF7x6a8gP6g8F-41" target="cU1rNZnWF7x6a8gP6g8F-43" edge="1">
          <mxGeometry relative="1" as="geometry" />
        </mxCell>
        <mxCell id="cU1rNZnWF7x6a8gP6g8F-38" style="edgeStyle=none;shape=connector;rounded=0;orthogonalLoop=1;jettySize=auto;html=1;align=center;verticalAlign=middle;fontFamily=Helvetica;fontSize=12;fontColor=default;labelBackgroundColor=default;endArrow=classic;" parent="1" source="cU1rNZnWF7x6a8gP6g8F-41" target="cU1rNZnWF7x6a8gP6g8F-44" edge="1">
          <mxGeometry relative="1" as="geometry" />
        </mxCell>
        <mxCell id="cU1rNZnWF7x6a8gP6g8F-39" value="" style="edgeStyle=none;shape=connector;rounded=0;orthogonalLoop=1;jettySize=auto;html=1;align=center;verticalAlign=middle;fontFamily=Helvetica;fontSize=12;fontColor=default;labelBackgroundColor=default;endArrow=classic;" parent="1" source="cU1rNZnWF7x6a8gP6g8F-41" target="cU1rNZnWF7x6a8gP6g8F-45" edge="1">
          <mxGeometry relative="1" as="geometry">
            <mxPoint x="1024.9965217391305" y="870" as="sourcePoint" />
          </mxGeometry>
        </mxCell>
        <mxCell id="cU1rNZnWF7x6a8gP6g8F-40" style="edgeStyle=none;shape=connector;rounded=0;orthogonalLoop=1;jettySize=auto;html=1;align=center;verticalAlign=middle;fontFamily=Helvetica;fontSize=12;fontColor=default;labelBackgroundColor=default;endArrow=classic;" parent="1" source="cU1rNZnWF7x6a8gP6g8F-41" target="cU1rNZnWF7x6a8gP6g8F-46" edge="1">
          <mxGeometry relative="1" as="geometry" />
        </mxCell>
        <mxCell id="cU1rNZnWF7x6a8gP6g8F-56" value="" style="edgeStyle=none;shape=connector;rounded=0;orthogonalLoop=1;jettySize=auto;html=1;align=center;verticalAlign=middle;fontFamily=Helvetica;fontSize=12;fontColor=default;labelBackgroundColor=default;endArrow=classic;" parent="1" source="cU1rNZnWF7x6a8gP6g8F-41" target="cU1rNZnWF7x6a8gP6g8F-55" edge="1">
          <mxGeometry relative="1" as="geometry" />
        </mxCell>
        <mxCell id="cU1rNZnWF7x6a8gP6g8F-41" value="Vet" style="html=1;dashed=0;whiteSpace=wrap;shadow=0;sketch=0;fillStyle=solid;pointerEvents=1;align=center;verticalAlign=middle;fontFamily=Helvetica;fontSize=12;labelBackgroundColor=default;" parent="1" vertex="1">
          <mxGeometry x="1005" y="860" width="100" height="50" as="geometry" />
        </mxCell>
        <mxCell id="cU1rNZnWF7x6a8gP6g8F-42" value="id" style="ellipse;whiteSpace=wrap;html=1;dashed=0;shadow=0;sketch=0;fillStyle=solid;pointerEvents=1;labelBackgroundColor=default;" parent="1" vertex="1">
          <mxGeometry x="875" y="750" width="80" height="80" as="geometry" />
        </mxCell>
        <mxCell id="cU1rNZnWF7x6a8gP6g8F-43" value="name" style="ellipse;whiteSpace=wrap;html=1;dashed=0;shadow=0;sketch=0;fillStyle=solid;pointerEvents=1;labelBackgroundColor=default;align=center;verticalAlign=middle;fontFamily=Helvetica;fontSize=12;" parent="1" vertex="1">
          <mxGeometry x="955" y="740" width="80" height="80" as="geometry" />
        </mxCell>
        <mxCell id="cU1rNZnWF7x6a8gP6g8F-44" value="clinic address" style="ellipse;whiteSpace=wrap;html=1;dashed=0;shadow=0;sketch=0;fillStyle=solid;pointerEvents=1;labelBackgroundColor=default;align=center;verticalAlign=middle;fontFamily=Helvetica;fontSize=12;" parent="1" vertex="1">
          <mxGeometry x="1035" y="740" width="80" height="80" as="geometry" />
        </mxCell>
        <mxCell id="cU1rNZnWF7x6a8gP6g8F-45" value="fiscal number" style="ellipse;whiteSpace=wrap;html=1;dashed=0;shadow=0;sketch=0;fillStyle=solid;pointerEvents=1;labelBackgroundColor=default;align=center;verticalAlign=middle;fontFamily=Helvetica;fontSize=12;" parent="1" vertex="1">
          <mxGeometry x="1115" y="750" width="80" height="80" as="geometry" />
        </mxCell>
        <mxCell id="cU1rNZnWF7x6a8gP6g8F-46" value="birthdate" style="ellipse;whiteSpace=wrap;html=1;dashed=0;shadow=0;sketch=0;fillStyle=solid;pointerEvents=1;labelBackgroundColor=default;align=center;verticalAlign=middle;fontFamily=Helvetica;fontSize=12;" parent="1" vertex="1">
          <mxGeometry x="1145" y="820" width="80" height="80" as="geometry" />
        </mxCell>
        <mxCell id="cU1rNZnWF7x6a8gP6g8F-48" value="organization" style="ellipse;whiteSpace=wrap;html=1;dashed=0;shadow=0;sketch=0;fillStyle=solid;pointerEvents=1;labelBackgroundColor=default;" parent="1" vertex="1">
          <mxGeometry x="1335" y="740" width="80" height="80" as="geometry" />
        </mxCell>
        <mxCell id="cU1rNZnWF7x6a8gP6g8F-50" value="name" style="ellipse;whiteSpace=wrap;html=1;dashed=0;shadow=0;sketch=0;fillStyle=solid;pointerEvents=1;labelBackgroundColor=default;" parent="1" vertex="1">
          <mxGeometry x="1575" y="830" width="80" height="80" as="geometry" />
        </mxCell>
        <mxCell id="cU1rNZnWF7x6a8gP6g8F-53" value="legal id" style="ellipse;whiteSpace=wrap;html=1;dashed=0;shadow=0;sketch=0;fillStyle=solid;pointerEvents=1;labelBackgroundColor=default;" parent="1" vertex="1">
          <mxGeometry x="1575" y="750" width="80" height="80" as="geometry" />
        </mxCell>
        <mxCell id="cU1rNZnWF7x6a8gP6g8F-55" value="registration id" style="ellipse;whiteSpace=wrap;html=1;dashed=0;shadow=0;sketch=0;fillStyle=solid;pointerEvents=1;labelBackgroundColor=default;" parent="1" vertex="1">
          <mxGeometry x="855" y="830" width="80" height="80" as="geometry" />
        </mxCell>
        <mxCell id="cU1rNZnWF7x6a8gP6g8F-59" value="contact" style="ellipse;whiteSpace=wrap;html=1;dashed=0;shadow=0;sketch=0;fillStyle=solid;pointerEvents=1;labelBackgroundColor=default;align=center;verticalAlign=middle;fontFamily=Helvetica;fontSize=12;" parent="1" vertex="1">
          <mxGeometry x="1530" y="250" width="80" height="80" as="geometry" />
        </mxCell>
        <mxCell id="qgDj-NQgLyy0txTHvN6Q-7" value="breed" style="ellipse;whiteSpace=wrap;html=1;dashed=0;shadow=0;sketch=0;fillStyle=solid;pointerEvents=1;labelBackgroundColor=default;" parent="1" vertex="1">
          <mxGeometry x="1370" y="570" width="80" height="80" as="geometry" />
        </mxCell>
        <mxCell id="qgDj-NQgLyy0txTHvN6Q-11" value="color" style="ellipse;whiteSpace=wrap;html=1;dashed=0;shadow=0;sketch=0;fillStyle=solid;pointerEvents=1;labelBackgroundColor=default;align=center;verticalAlign=middle;fontFamily=Helvetica;fontSize=12;" parent="1" vertex="1">
          <mxGeometry x="1550" y="590" width="80" height="80" as="geometry" />
        </mxCell>
        <mxCell id="qgDj-NQgLyy0txTHvN6Q-15" value="" style="edgeStyle=none;shape=connector;rounded=0;orthogonalLoop=1;jettySize=auto;html=1;align=center;verticalAlign=middle;fontFamily=Helvetica;fontSize=12;fontColor=default;labelBackgroundColor=default;endArrow=classic;" parent="1" source="qgDj-NQgLyy0txTHvN6Q-13" target="qgDj-NQgLyy0txTHvN6Q-14" edge="1">
          <mxGeometry relative="1" as="geometry" />
        </mxCell>
        <mxCell id="qgDj-NQgLyy0txTHvN6Q-17" value="" style="edgeStyle=none;shape=connector;rounded=0;orthogonalLoop=1;jettySize=auto;html=1;align=center;verticalAlign=middle;fontFamily=Helvetica;fontSize=12;fontColor=default;labelBackgroundColor=default;endArrow=classic;" parent="1" source="qgDj-NQgLyy0txTHvN6Q-13" target="qgDj-NQgLyy0txTHvN6Q-16" edge="1">
          <mxGeometry relative="1" as="geometry">
            <mxPoint x="989.9957142857143" y="175" as="sourcePoint" />
          </mxGeometry>
        </mxCell>
        <mxCell id="qgDj-NQgLyy0txTHvN6Q-23" style="edgeStyle=none;shape=connector;rounded=0;orthogonalLoop=1;jettySize=auto;html=1;align=center;verticalAlign=middle;fontFamily=Helvetica;fontSize=12;fontColor=default;labelBackgroundColor=default;endArrow=classic;" parent="1" source="qgDj-NQgLyy0txTHvN6Q-13" target="qgDj-NQgLyy0txTHvN6Q-21" edge="1">
          <mxGeometry relative="1" as="geometry" />
        </mxCell>
        <mxCell id="qgDj-NQgLyy0txTHvN6Q-24" style="edgeStyle=none;shape=connector;rounded=0;orthogonalLoop=1;jettySize=auto;html=1;align=center;verticalAlign=middle;fontFamily=Helvetica;fontSize=12;fontColor=default;labelBackgroundColor=default;endArrow=classic;" parent="1" source="qgDj-NQgLyy0txTHvN6Q-13" target="qgDj-NQgLyy0txTHvN6Q-20" edge="1">
          <mxGeometry relative="1" as="geometry" />
        </mxCell>
        <mxCell id="qgDj-NQgLyy0txTHvN6Q-26" style="edgeStyle=none;shape=connector;rounded=0;orthogonalLoop=1;jettySize=auto;html=1;align=center;verticalAlign=middle;fontFamily=Helvetica;fontSize=12;fontColor=default;labelBackgroundColor=default;endArrow=classic;" parent="1" source="qgDj-NQgLyy0txTHvN6Q-13" target="qgDj-NQgLyy0txTHvN6Q-25" edge="1">
          <mxGeometry relative="1" as="geometry" />
        </mxCell>
        <mxCell id="qgDj-NQgLyy0txTHvN6Q-28" value="" style="edgeStyle=none;shape=connector;rounded=0;orthogonalLoop=1;jettySize=auto;html=1;align=center;verticalAlign=middle;fontFamily=Helvetica;fontSize=12;fontColor=default;labelBackgroundColor=default;endArrow=classic;" parent="1" source="qgDj-NQgLyy0txTHvN6Q-13" target="qgDj-NQgLyy0txTHvN6Q-27" edge="1">
          <mxGeometry relative="1" as="geometry">
            <mxPoint x="1040" y="141.66666666666663" as="sourcePoint" />
          </mxGeometry>
        </mxCell>
        <mxCell id="qgDj-NQgLyy0txTHvN6Q-13" value="Vaccine" style="html=1;dashed=0;whiteSpace=wrap;shadow=0;sketch=0;fillStyle=solid;pointerEvents=1;align=center;verticalAlign=middle;fontFamily=Helvetica;fontSize=12;labelBackgroundColor=default;" parent="1" vertex="1">
          <mxGeometry x="970" y="180" width="100" height="50" as="geometry" />
        </mxCell>
        <mxCell id="qgDj-NQgLyy0txTHvN6Q-14" value="id" style="ellipse;whiteSpace=wrap;html=1;dashed=0;shadow=0;sketch=0;fillStyle=solid;pointerEvents=1;labelBackgroundColor=default;" parent="1" vertex="1">
          <mxGeometry x="920" y="265" width="80" height="80" as="geometry" />
        </mxCell>
        <mxCell id="qgDj-NQgLyy0txTHvN6Q-16" value="type" style="ellipse;whiteSpace=wrap;html=1;dashed=0;shadow=0;sketch=0;fillStyle=solid;pointerEvents=1;labelBackgroundColor=default;align=center;verticalAlign=middle;fontFamily=Helvetica;fontSize=12;" parent="1" vertex="1">
          <mxGeometry x="1010" y="270" width="80" height="80" as="geometry" />
        </mxCell>
        <mxCell id="qgDj-NQgLyy0txTHvN6Q-20" value="Date" style="ellipse;whiteSpace=wrap;html=1;dashed=0;shadow=0;sketch=0;fillStyle=solid;pointerEvents=1;labelBackgroundColor=default;align=center;verticalAlign=middle;fontFamily=Helvetica;fontSize=12;" parent="1" vertex="1">
          <mxGeometry x="1090" y="230" width="80" height="80" as="geometry" />
        </mxCell>
        <mxCell id="qgDj-NQgLyy0txTHvN6Q-21" value="expiration" style="ellipse;whiteSpace=wrap;html=1;dashed=0;shadow=0;sketch=0;fillStyle=solid;pointerEvents=1;labelBackgroundColor=default;align=center;verticalAlign=middle;fontFamily=Helvetica;fontSize=12;" parent="1" vertex="1">
          <mxGeometry x="1020" y="70" width="80" height="80" as="geometry" />
        </mxCell>
        <mxCell id="qgDj-NQgLyy0txTHvN6Q-22" style="edgeStyle=none;shape=connector;rounded=0;orthogonalLoop=1;jettySize=auto;html=1;exitX=0;exitY=1;exitDx=0;exitDy=0;align=center;verticalAlign=middle;fontFamily=Helvetica;fontSize=12;fontColor=default;labelBackgroundColor=default;endArrow=classic;" parent="1" source="qgDj-NQgLyy0txTHvN6Q-21" target="qgDj-NQgLyy0txTHvN6Q-21" edge="1">
          <mxGeometry relative="1" as="geometry" />
        </mxCell>
        <mxCell id="qgDj-NQgLyy0txTHvN6Q-25" value="pet id" style="ellipse;whiteSpace=wrap;html=1;dashed=0;shadow=0;sketch=0;fillStyle=solid;pointerEvents=1;labelBackgroundColor=default;align=center;verticalAlign=middle;fontFamily=Helvetica;fontSize=12;" parent="1" vertex="1">
          <mxGeometry x="920" y="70" width="80" height="80" as="geometry" />
        </mxCell>
        <mxCell id="qgDj-NQgLyy0txTHvN6Q-27" value="vet id" style="ellipse;whiteSpace=wrap;html=1;dashed=0;shadow=0;sketch=0;fillStyle=solid;pointerEvents=1;labelBackgroundColor=default;align=center;verticalAlign=middle;fontFamily=Helvetica;fontSize=12;" parent="1" vertex="1">
          <mxGeometry x="1100" y="135" width="80" height="80" as="geometry" />
        </mxCell>
        <mxCell id="qgDj-NQgLyy0txTHvN6Q-33" value="" style="edgeStyle=none;shape=connector;rounded=0;orthogonalLoop=1;jettySize=auto;html=1;align=center;verticalAlign=middle;fontFamily=Helvetica;fontSize=12;fontColor=default;labelBackgroundColor=default;endArrow=classic;" parent="1" source="qgDj-NQgLyy0txTHvN6Q-29" target="qgDj-NQgLyy0txTHvN6Q-32" edge="1">
          <mxGeometry relative="1" as="geometry" />
        </mxCell>
        <mxCell id="qgDj-NQgLyy0txTHvN6Q-35" value="" style="edgeStyle=none;shape=connector;rounded=0;orthogonalLoop=1;jettySize=auto;html=1;align=center;verticalAlign=middle;fontFamily=Helvetica;fontSize=12;fontColor=default;labelBackgroundColor=default;endArrow=classic;" parent="1" source="qgDj-NQgLyy0txTHvN6Q-29" target="qgDj-NQgLyy0txTHvN6Q-34" edge="1">
          <mxGeometry relative="1" as="geometry">
            <mxPoint x="1010" y="537.5" as="sourcePoint" />
          </mxGeometry>
        </mxCell>
        <mxCell id="qgDj-NQgLyy0txTHvN6Q-37" value="" style="edgeStyle=none;shape=connector;rounded=0;orthogonalLoop=1;jettySize=auto;html=1;align=center;verticalAlign=middle;fontFamily=Helvetica;fontSize=12;fontColor=default;labelBackgroundColor=default;endArrow=classic;" parent="1" source="qgDj-NQgLyy0txTHvN6Q-29" target="qgDj-NQgLyy0txTHvN6Q-36" edge="1">
          <mxGeometry relative="1" as="geometry" />
        </mxCell>
        <mxCell id="qgDj-NQgLyy0txTHvN6Q-38" value="" style="edgeStyle=none;shape=connector;rounded=0;orthogonalLoop=1;jettySize=auto;html=1;align=center;verticalAlign=middle;fontFamily=Helvetica;fontSize=12;fontColor=default;labelBackgroundColor=default;endArrow=classic;" parent="1" source="qgDj-NQgLyy0txTHvN6Q-29" target="qgDj-NQgLyy0txTHvN6Q-36" edge="1">
          <mxGeometry relative="1" as="geometry" />
        </mxCell>
        <mxCell id="qgDj-NQgLyy0txTHvN6Q-40" value="" style="edgeStyle=none;shape=connector;rounded=0;orthogonalLoop=1;jettySize=auto;html=1;align=center;verticalAlign=middle;fontFamily=Helvetica;fontSize=12;fontColor=default;labelBackgroundColor=default;endArrow=classic;" parent="1" source="qgDj-NQgLyy0txTHvN6Q-29" target="qgDj-NQgLyy0txTHvN6Q-39" edge="1">
          <mxGeometry relative="1" as="geometry" />
        </mxCell>
        <mxCell id="qgDj-NQgLyy0txTHvN6Q-42" value="" style="edgeStyle=none;shape=connector;rounded=0;orthogonalLoop=1;jettySize=auto;html=1;align=center;verticalAlign=middle;fontFamily=Helvetica;fontSize=12;fontColor=default;labelBackgroundColor=default;endArrow=classic;" parent="1" source="qgDj-NQgLyy0txTHvN6Q-29" target="qgDj-NQgLyy0txTHvN6Q-41" edge="1">
          <mxGeometry relative="1" as="geometry" />
        </mxCell>
        <mxCell id="qgDj-NQgLyy0txTHvN6Q-44" value="" style="edgeStyle=none;shape=connector;rounded=0;orthogonalLoop=1;jettySize=auto;html=1;align=center;verticalAlign=middle;fontFamily=Helvetica;fontSize=12;fontColor=default;labelBackgroundColor=default;endArrow=classic;" parent="1" source="qgDj-NQgLyy0txTHvN6Q-29" target="qgDj-NQgLyy0txTHvN6Q-43" edge="1">
          <mxGeometry relative="1" as="geometry" />
        </mxCell>
        <mxCell id="qgDj-NQgLyy0txTHvN6Q-29" value="Treatment" style="html=1;dashed=0;whiteSpace=wrap;shadow=0;sketch=0;fillStyle=solid;pointerEvents=1;align=center;verticalAlign=middle;fontFamily=Helvetica;fontSize=12;labelBackgroundColor=default;" parent="1" vertex="1">
          <mxGeometry x="960" y="530" width="100" height="50" as="geometry" />
        </mxCell>
        <mxCell id="qgDj-NQgLyy0txTHvN6Q-30" value="conditions" style="ellipse;whiteSpace=wrap;html=1;dashed=0;shadow=0;sketch=0;fillStyle=solid;pointerEvents=1;labelBackgroundColor=default;align=center;verticalAlign=middle;fontFamily=Helvetica;fontSize=12;" parent="1" vertex="1">
          <mxGeometry x="1340" y="490" width="80" height="80" as="geometry" />
        </mxCell>
        <mxCell id="qgDj-NQgLyy0txTHvN6Q-32" value="id" style="ellipse;whiteSpace=wrap;html=1;dashed=0;shadow=0;sketch=0;fillStyle=solid;pointerEvents=1;labelBackgroundColor=default;" parent="1" vertex="1">
          <mxGeometry x="920" y="425" width="80" height="80" as="geometry" />
        </mxCell>
        <mxCell id="qgDj-NQgLyy0txTHvN6Q-34" value="type" style="ellipse;whiteSpace=wrap;html=1;dashed=0;shadow=0;sketch=0;fillStyle=solid;pointerEvents=1;labelBackgroundColor=default;align=center;verticalAlign=middle;fontFamily=Helvetica;fontSize=12;" parent="1" vertex="1">
          <mxGeometry x="1000" y="422.5" width="80" height="80" as="geometry" />
        </mxCell>
        <mxCell id="qgDj-NQgLyy0txTHvN6Q-36" value="start date" style="ellipse;whiteSpace=wrap;html=1;dashed=0;shadow=0;sketch=0;fillStyle=solid;pointerEvents=1;labelBackgroundColor=default;" parent="1" vertex="1">
          <mxGeometry x="1080" y="440" width="80" height="80" as="geometry" />
        </mxCell>
        <mxCell id="qgDj-NQgLyy0txTHvN6Q-39" value="end date" style="ellipse;whiteSpace=wrap;html=1;dashed=0;shadow=0;sketch=0;fillStyle=solid;pointerEvents=1;labelBackgroundColor=default;" parent="1" vertex="1">
          <mxGeometry x="1100" y="520" width="80" height="80" as="geometry" />
        </mxCell>
        <mxCell id="qgDj-NQgLyy0txTHvN6Q-41" value="responsible&lt;div&gt;(vet)&lt;/div&gt;" style="ellipse;whiteSpace=wrap;html=1;dashed=0;shadow=0;sketch=0;fillStyle=solid;pointerEvents=1;labelBackgroundColor=default;" parent="1" vertex="1">
          <mxGeometry x="1050" y="600" width="80" height="80" as="geometry" />
        </mxCell>
        <mxCell id="qgDj-NQgLyy0txTHvN6Q-43" value="pet id" style="ellipse;whiteSpace=wrap;html=1;dashed=0;shadow=0;sketch=0;fillStyle=solid;pointerEvents=1;labelBackgroundColor=default;" parent="1" vertex="1">
          <mxGeometry x="960" y="600" width="80" height="80" as="geometry" />
        </mxCell>
        <mxCell id="qgDj-NQgLyy0txTHvN6Q-45" value="PetOwner" style="whiteSpace=wrap;html=1;align=center;shadow=0;dashed=0;sketch=0;fillStyle=solid;pointerEvents=1;verticalAlign=top;fontFamily=Helvetica;fontSize=12;labelBackgroundColor=default;" parent="1" vertex="1">
          <mxGeometry x="1720" y="90" width="100" height="40" as="geometry" />
        </mxCell>
        <mxCell id="qgDj-NQgLyy0txTHvN6Q-46" value="Treatment" style="shape=ext;margin=3;double=1;whiteSpace=wrap;html=1;align=center;shadow=0;dashed=0;sketch=0;fillStyle=solid;pointerEvents=1;verticalAlign=top;fontFamily=Helvetica;fontSize=12;labelBackgroundColor=default;" parent="1" vertex="1">
          <mxGeometry x="2035" y="300" width="100" height="40" as="geometry" />
        </mxCell>
        <mxCell id="qgDj-NQgLyy0txTHvN6Q-64" value="" style="edgeStyle=none;shape=connector;rounded=0;orthogonalLoop=1;jettySize=auto;html=1;align=center;verticalAlign=middle;fontFamily=Helvetica;fontSize=12;fontColor=default;labelBackgroundColor=default;endArrow=none;endFill=0;" parent="1" source="qgDj-NQgLyy0txTHvN6Q-47" target="qgDj-NQgLyy0txTHvN6Q-54" edge="1">
          <mxGeometry relative="1" as="geometry" />
        </mxCell>
        <mxCell id="qgDj-NQgLyy0txTHvN6Q-69" style="edgeStyle=none;shape=connector;rounded=0;orthogonalLoop=1;jettySize=auto;html=1;align=center;verticalAlign=middle;fontFamily=Helvetica;fontSize=12;fontColor=default;labelBackgroundColor=default;endArrow=none;endFill=0;startArrow=ERzeroToMany;startFill=0;" parent="1" source="qgDj-NQgLyy0txTHvN6Q-47" target="qgDj-NQgLyy0txTHvN6Q-67" edge="1">
          <mxGeometry relative="1" as="geometry" />
        </mxCell>
        <mxCell id="qgDj-NQgLyy0txTHvN6Q-47" value="Vaccine" style="shape=ext;margin=3;double=1;whiteSpace=wrap;html=1;align=center;shadow=0;dashed=0;sketch=0;fillStyle=solid;pointerEvents=1;verticalAlign=top;fontFamily=Helvetica;fontSize=12;labelBackgroundColor=default;" parent="1" vertex="1">
          <mxGeometry x="2250" y="195" width="100" height="40" as="geometry" />
        </mxCell>
        <mxCell id="qgDj-NQgLyy0txTHvN6Q-62" style="edgeStyle=none;shape=connector;rounded=0;orthogonalLoop=1;jettySize=auto;html=1;align=center;verticalAlign=middle;fontFamily=Helvetica;fontSize=12;fontColor=default;labelBackgroundColor=default;endArrow=none;endFill=0;startArrow=ERone;startFill=0;" parent="1" source="qgDj-NQgLyy0txTHvN6Q-48" target="qgDj-NQgLyy0txTHvN6Q-61" edge="1">
          <mxGeometry relative="1" as="geometry" />
        </mxCell>
        <mxCell id="qgDj-NQgLyy0txTHvN6Q-68" style="edgeStyle=none;shape=connector;rounded=0;orthogonalLoop=1;jettySize=auto;html=1;align=center;verticalAlign=middle;fontFamily=Helvetica;fontSize=12;fontColor=default;labelBackgroundColor=default;endArrow=none;endFill=0;startArrow=ERone;startFill=0;" parent="1" source="qgDj-NQgLyy0txTHvN6Q-48" target="qgDj-NQgLyy0txTHvN6Q-67" edge="1">
          <mxGeometry relative="1" as="geometry" />
        </mxCell>
        <mxCell id="qgDj-NQgLyy0txTHvN6Q-48" value="Vet" style="whiteSpace=wrap;html=1;align=center;shadow=0;dashed=0;sketch=0;fillStyle=solid;pointerEvents=1;verticalAlign=top;fontFamily=Helvetica;fontSize=12;labelBackgroundColor=default;" parent="1" vertex="1">
          <mxGeometry x="2145" y="620" width="100" height="40" as="geometry" />
        </mxCell>
        <mxCell id="qgDj-NQgLyy0txTHvN6Q-55" style="edgeStyle=none;shape=connector;rounded=0;orthogonalLoop=1;jettySize=auto;html=1;align=center;verticalAlign=middle;fontFamily=Helvetica;fontSize=12;fontColor=default;labelBackgroundColor=default;endArrow=none;endFill=0;startArrow=ERone;startFill=0;" parent="1" source="qgDj-NQgLyy0txTHvN6Q-49" target="qgDj-NQgLyy0txTHvN6Q-54" edge="1">
          <mxGeometry relative="1" as="geometry" />
        </mxCell>
        <mxCell id="qgDj-NQgLyy0txTHvN6Q-59" style="edgeStyle=none;shape=connector;rounded=0;orthogonalLoop=1;jettySize=auto;html=1;align=center;verticalAlign=middle;fontFamily=Helvetica;fontSize=12;fontColor=default;labelBackgroundColor=default;endArrow=none;endFill=0;startArrow=ERone;startFill=0;" parent="1" source="qgDj-NQgLyy0txTHvN6Q-49" target="qgDj-NQgLyy0txTHvN6Q-58" edge="1">
          <mxGeometry relative="1" as="geometry" />
        </mxCell>
        <mxCell id="qgDj-NQgLyy0txTHvN6Q-49" value="Pet" style="shape=ext;margin=3;double=1;whiteSpace=wrap;html=1;align=center;shadow=0;dashed=0;sketch=0;fillStyle=solid;pointerEvents=1;verticalAlign=top;fontFamily=Helvetica;fontSize=12;labelBackgroundColor=default;" parent="1" vertex="1">
          <mxGeometry x="2035" y="90" width="100" height="40" as="geometry" />
        </mxCell>
        <mxCell id="qgDj-NQgLyy0txTHvN6Q-51" style="edgeStyle=none;shape=connector;rounded=0;orthogonalLoop=1;jettySize=auto;html=1;align=center;verticalAlign=middle;fontFamily=Helvetica;fontSize=12;fontColor=default;labelBackgroundColor=default;endArrow=ERmany;endFill=0;" parent="1" source="qgDj-NQgLyy0txTHvN6Q-50" target="qgDj-NQgLyy0txTHvN6Q-49" edge="1">
          <mxGeometry relative="1" as="geometry" />
        </mxCell>
        <mxCell id="qgDj-NQgLyy0txTHvN6Q-52" style="edgeStyle=none;shape=connector;rounded=0;orthogonalLoop=1;jettySize=auto;html=1;align=center;verticalAlign=middle;fontFamily=Helvetica;fontSize=12;fontColor=default;labelBackgroundColor=default;endArrow=ERone;endFill=0;startArrow=none;startFill=0;" parent="1" source="qgDj-NQgLyy0txTHvN6Q-50" target="qgDj-NQgLyy0txTHvN6Q-45" edge="1">
          <mxGeometry relative="1" as="geometry" />
        </mxCell>
        <mxCell id="qgDj-NQgLyy0txTHvN6Q-50" value="Relationship&lt;div&gt;&lt;br&gt;&lt;/div&gt;&lt;div&gt;Has&lt;/div&gt;" style="shape=rhombus;perimeter=rhombusPerimeter;whiteSpace=wrap;html=1;align=center;shadow=0;dashed=0;sketch=0;fillStyle=solid;pointerEvents=1;verticalAlign=top;fontFamily=Helvetica;fontSize=12;labelBackgroundColor=default;" parent="1" vertex="1">
          <mxGeometry x="1860" y="80" width="120" height="60" as="geometry" />
        </mxCell>
        <mxCell id="qgDj-NQgLyy0txTHvN6Q-57" style="edgeStyle=none;shape=connector;rounded=0;orthogonalLoop=1;jettySize=auto;html=1;align=center;verticalAlign=middle;fontFamily=Helvetica;fontSize=12;fontColor=default;labelBackgroundColor=default;endArrow=ERzeroToMany;endFill=0;" parent="1" source="qgDj-NQgLyy0txTHvN6Q-54" target="qgDj-NQgLyy0txTHvN6Q-47" edge="1">
          <mxGeometry relative="1" as="geometry" />
        </mxCell>
        <mxCell id="qgDj-NQgLyy0txTHvN6Q-54" value="Relationship&lt;div&gt;&lt;br&gt;&lt;/div&gt;&lt;div&gt;Has&lt;/div&gt;" style="shape=rhombus;perimeter=rhombusPerimeter;whiteSpace=wrap;html=1;align=center;shadow=0;dashed=0;sketch=0;fillStyle=solid;pointerEvents=1;verticalAlign=top;fontFamily=Helvetica;fontSize=12;labelBackgroundColor=default;" parent="1" vertex="1">
          <mxGeometry x="2240" y="80" width="120" height="60" as="geometry" />
        </mxCell>
        <mxCell id="qgDj-NQgLyy0txTHvN6Q-60" style="edgeStyle=none;shape=connector;rounded=0;orthogonalLoop=1;jettySize=auto;html=1;align=center;verticalAlign=middle;fontFamily=Helvetica;fontSize=12;fontColor=default;labelBackgroundColor=default;endArrow=ERzeroToMany;endFill=0;" parent="1" source="qgDj-NQgLyy0txTHvN6Q-58" target="qgDj-NQgLyy0txTHvN6Q-46" edge="1">
          <mxGeometry relative="1" as="geometry" />
        </mxCell>
        <mxCell id="qgDj-NQgLyy0txTHvN6Q-58" value="Relationship&lt;div&gt;&lt;br&gt;&lt;/div&gt;&lt;div&gt;Receive&lt;/div&gt;" style="shape=rhombus;perimeter=rhombusPerimeter;whiteSpace=wrap;html=1;align=center;shadow=0;dashed=0;sketch=0;fillStyle=solid;pointerEvents=1;verticalAlign=top;fontFamily=Helvetica;fontSize=12;labelBackgroundColor=default;" parent="1" vertex="1">
          <mxGeometry x="2025" y="185" width="120" height="60" as="geometry" />
        </mxCell>
        <mxCell id="qgDj-NQgLyy0txTHvN6Q-65" style="edgeStyle=none;shape=connector;rounded=0;orthogonalLoop=1;jettySize=auto;html=1;align=center;verticalAlign=middle;fontFamily=Helvetica;fontSize=12;fontColor=default;labelBackgroundColor=default;endArrow=ERzeroToMany;endFill=0;" parent="1" source="qgDj-NQgLyy0txTHvN6Q-61" target="qgDj-NQgLyy0txTHvN6Q-46" edge="1">
          <mxGeometry relative="1" as="geometry" />
        </mxCell>
        <mxCell id="qgDj-NQgLyy0txTHvN6Q-61" value="Relationship&lt;div&gt;&lt;br&gt;&lt;/div&gt;&lt;div&gt;Conduct&lt;/div&gt;" style="shape=rhombus;perimeter=rhombusPerimeter;whiteSpace=wrap;html=1;align=center;shadow=0;dashed=0;sketch=0;fillStyle=solid;pointerEvents=1;verticalAlign=top;fontFamily=Helvetica;fontSize=12;labelBackgroundColor=default;" parent="1" vertex="1">
          <mxGeometry x="2025" y="435" width="120" height="60" as="geometry" />
        </mxCell>
        <mxCell id="qgDj-NQgLyy0txTHvN6Q-67" value="Relationship&lt;div&gt;&lt;br&gt;&lt;/div&gt;&lt;div&gt;Perform&lt;/div&gt;" style="shape=rhombus;perimeter=rhombusPerimeter;whiteSpace=wrap;html=1;align=center;shadow=0;dashed=0;sketch=0;fillStyle=solid;pointerEvents=1;verticalAlign=top;fontFamily=Helvetica;fontSize=12;labelBackgroundColor=default;" parent="1" vertex="1">
          <mxGeometry x="2240" y="435" width="120" height="60" as="geometry" />
        </mxCell>
      </root>
    </mxGraphModel>
  </diagram>
</mxfile>
